HIERARCHY
ROOT joint_0
{
	OFFSET 0.000000 0.000000 0.000000
	CHANNELS 6 Xposition Yposition Zposition Zrotation Yrotation Xrotation 
	JOINT joint_1
	{
		OFFSET 14.113007 -2.961990 123.953979
		CHANNELS 3 Zrotation Yrotation Xrotation
		JOINT joint_2
		{
			OFFSET 0.764000 -2.434006 113.871948
			CHANNELS 3 Zrotation Yrotation Xrotation
			JOINT joint_3
			{
				OFFSET 0.186996 -2.169998 113.753052
				CHANNELS 3 Zrotation Yrotation Xrotation
				JOINT joint_4
				{
					OFFSET 16.096001 -2.720001 160.853027
					CHANNELS 3 Zrotation Yrotation Xrotation
					JOINT joint_5
					{
						OFFSET 34.392006 -0.188995 92.567017
						CHANNELS 3 Zrotation Yrotation Xrotation
						End Site
						{
							OFFSET 0.000000 0.000000 0.000000
						}
					}
				}
				JOINT joint_6
				{
					OFFSET 9.183998 -36.684006 89.597046
					CHANNELS 3 Zrotation Yrotation Xrotation
					JOINT joint_7
					{
						OFFSET 0.486000 -164.365997 -28.984009
						CHANNELS 3 Zrotation Yrotation Xrotation
						JOINT joint_8
						{
							OFFSET 38.899002 -34.967010 -291.651978
							CHANNELS 3 Zrotation Yrotation Xrotation
							JOINT joint_9
							{
								OFFSET 41.714005 -45.890991 -258.857056
								CHANNELS 3 Zrotation Yrotation Xrotation
								End Site
								{
									OFFSET 0.000000 0.000000 0.000000
								}
							}
						}
					}
				}
				JOINT joint_10
				{
					OFFSET 8.867004 33.650002 90.817993
					CHANNELS 3 Zrotation Yrotation Xrotation
					JOINT joint_11
					{
						OFFSET 0.018997 164.299999 -29.368042
						CHANNELS 3 Zrotation Yrotation Xrotation
						JOINT joint_12
						{
							OFFSET 29.440994 30.887997 -293.216919
							CHANNELS 3 Zrotation Yrotation Xrotation
							JOINT joint_13
							{
								OFFSET 46.174011 54.490005 -256.422058
								CHANNELS 3 Zrotation Yrotation Xrotation
								End Site
								{
									OFFSET 0.000000 0.000000 0.000000
								}
							}
						}
					}
				}
			}
		}
	}
	JOINT joint_14
	{
		OFFSET -2.264000 -89.466995 -116.150024
		CHANNELS 3 Zrotation Yrotation Xrotation
		JOINT joint_15
		{
			OFFSET -16.400993 -17.452988 -493.781982
			CHANNELS 3 Zrotation Yrotation Xrotation
			JOINT joint_16
			{
				OFFSET -50.497004 -13.404022 -424.754013
				CHANNELS 3 Zrotation Yrotation Xrotation
				JOINT joint_17
				{
					OFFSET 198.546007 -19.341003 -89.309000
					CHANNELS 3 Zrotation Yrotation Xrotation
					End Site
					{
						OFFSET 0.000000 0.000000 0.000000
					}
				}
			}
		}
	}
	JOINT joint_18
	{
		OFFSET -0.867996 96.016006 -110.817993
		CHANNELS 3 Zrotation Yrotation Xrotation
		JOINT joint_19
		{
			OFFSET -10.130997 24.658998 -493.645020
			CHANNELS 3 Zrotation Yrotation Xrotation
			JOINT joint_20
			{
				OFFSET -48.871004 19.434999 -424.714005
				CHANNELS 3 Zrotation Yrotation Xrotation
				JOINT joint_21
				{
					OFFSET 195.579996 24.926001 -94.327003
					CHANNELS 3 Zrotation Yrotation Xrotation
					End Site
					{
						OFFSET 0.000000 0.000000 0.000000
					}
				}
			}
		}
	}
}
MOTION
Frames: 17
Frame Time: 0.016667
-2284.058594 815.600159 1119.118042 11.397711 -1.993873 4.171371 -1.801199 0.962605 7.465573 -1.424712 -0.108948 -1.493954 -1.387265 0.099092 1.227532 -1.051114 -0.211449 2.638356 0.000000 0.000000 0.000000 1.694625 -4.773601 -2.771513 -1.147422 -1.393777 -12.428974 -167.694284 -83.867148 -162.815890 0.000000 0.000000 0.000000 0.509864 -4.241385 4.546154 1.143543 -0.564398 21.586267 -6.798746 -81.182751 -13.400684 0.000000 0.000000 0.000000 8.644733 -21.665615 -11.144061 12.193829 7.371408 1.334847 12.810155 6.527796 5.868319 0.000000 0.000000 0.000000 -9.358386 4.593642 2.963546 -8.177814 27.560525 -9.819058 -12.303655 -1.297538 -4.770563 0.000000 0.000000 0.000000 
-2270.146484 808.983459 1108.529053 12.960857 -3.154764 4.107146 -1.954494 1.030856 7.690548 -1.541986 -0.073376 -1.606362 -1.502745 0.067524 1.304688 -1.099916 -0.222818 2.765646 0.000000 0.000000 0.000000 2.564577 -4.106858 -3.621325 -1.996583 -0.949936 -12.533969 -168.734273 -82.301365 -161.716524 0.000000 0.000000 0.000000 0.050803 -5.263296 4.466750 0.888120 -1.567316 21.432827 -7.221804 -79.699541 -13.343246 0.000000 0.000000 0.000000 7.152688 -22.092379 -10.216317 10.156523 11.620338 1.706043 11.745825 5.296704 5.291897 0.000000 0.000000 0.000000 -11.096962 3.937696 5.017919 -9.476713 31.591181 -12.960958 -15.418188 -0.760611 -5.955525 0.000000 0.000000 0.000000 
-2257.909424 802.363037 1099.318970 14.356057 -4.227699 3.888585 -2.105600 1.441874 7.884122 -1.689458 -0.125901 -1.655860 -1.650240 0.109463 1.343353 -1.119746 -0.306709 2.815072 0.000000 0.000000 0.000000 3.131244 -3.680242 -3.994708 -2.753210 -0.713819 -12.803460 -169.566112 -81.207172 -160.728957 0.000000 0.000000 0.000000 -0.280515 -6.225287 4.474056 0.686635 -2.460403 21.219640 -7.626386 -78.328095 -13.279963 0.000000 0.000000 0.000000 5.776573 -22.609135 -9.347080 8.319732 15.906963 2.059373 11.062557 4.085787 4.868171 0.000000 0.000000 0.000000 -12.708926 3.105539 6.842814 -10.676648 35.508135 -15.542402 -18.611044 0.365101 -7.214523 0.000000 0.000000 0.000000 
-2248.172119 795.604919 1092.239014 15.362052 -5.059522 3.444049 -2.250990 2.339736 8.053923 -1.818285 -0.264819 -1.593249 -1.775127 0.310119 1.305257 -1.085594 -0.538366 2.725954 0.000000 0.000000 0.000000 3.120390 -3.821535 -3.522090 -3.239760 -0.876656 -13.392738 -169.903985 -80.974836 -160.134111 0.000000 0.000000 0.000000 -0.394776 -7.153850 4.692023 0.568079 -3.246288 20.952421 -8.000626 -77.180609 -13.174789 0.000000 0.000000 0.000000 4.894209 -23.440101 -8.667772 7.169452 19.894185 2.722417 11.260079 3.089590 4.813236 0.000000 0.000000 0.000000 -14.198607 1.892811 8.297885 -11.748882 39.613404 -17.371946 -22.042045 2.136497 -8.619364 0.000000 0.000000 0.000000 
-2240.109619 788.843140 1086.537964 16.169461 -5.768783 2.883248 -2.418407 3.555626 8.220124 -1.946612 -0.482911 -1.477196 -1.897120 0.592903 1.226089 -1.028423 -0.839947 2.576684 0.000000 0.000000 0.000000 2.828812 -4.226837 -2.632291 -3.576450 -1.233640 -14.107274 -169.964801 -81.202756 -159.741084 0.000000 0.000000 0.000000 -0.362483 -8.018093 5.027328 0.496426 -3.921947 20.646652 -8.348783 -76.227940 -13.084526 0.000000 0.000000 0.000000 4.129629 -24.415772 -8.031474 6.198003 23.986252 3.500572 11.888239 2.202384 4.931361 0.000000 0.000000 0.000000 -15.508454 0.465306 9.553850 -12.648754 43.678574 -18.656657 -25.582977 4.338618 -10.116247 0.000000 0.000000 0.000000 
-2232.499512 783.288635 1082.328979 16.764326 -6.401566 2.524216 -2.562223 4.662372 8.338591 -2.049368 -0.708851 -1.414335 -1.991425 0.823148 1.187385 -1.016688 -0.994108 2.537871 0.000000 0.000000 0.000000 2.630765 -4.557208 -1.904361 -3.640494 -1.530651 -14.598071 -169.861520 -81.588946 -159.858148 0.000000 0.000000 0.000000 -0.297072 -8.675038 5.176687 0.451883 -4.430762 20.334518 -8.632974 -75.474469 -13.061154 0.000000 0.000000 0.000000 3.536910 -24.973549 -7.590770 5.399642 27.145938 4.025677 12.424488 1.561931 5.039972 0.000000 0.000000 0.000000 -16.232745 -0.867222 10.453583 -13.061275 46.993266 -19.213261 -27.681988 5.865293 -11.028004 0.000000 0.000000 0.000000 
-2224.760254 779.612183 1079.896973 16.994584 -6.911126 2.568632 -2.641869 5.372891 8.360780 -2.093729 -0.859786 -1.489401 -2.021274 0.972769 1.250878 -1.108247 -0.860034 2.752078 0.000000 0.000000 0.000000 2.720748 -4.665136 -1.550088 -3.299893 -1.628486 -14.729288 -169.587598 -81.972809 -160.827587 0.000000 0.000000 0.000000 -0.201309 -8.979559 4.934388 0.444555 -4.679217 20.106813 -8.806398 -75.154907 -13.203155 0.000000 0.000000 0.000000 3.278126 -24.974106 -7.454106 4.872659 29.029174 4.206449 12.662386 0.888809 5.044062 0.000000 0.000000 0.000000 -16.136249 -2.096179 10.851029 -12.768408 49.521469 -18.937599 -27.088518 5.760138 -10.769126 0.000000 0.000000 0.000000 
-2217.473389 777.144043 1078.958008 16.888674 -7.270426 2.836564 -2.659737 5.815856 8.324306 -2.083460 -0.937369 -1.630192 -1.994305 1.080730 1.359844 -1.245356 -0.570930 3.075650 0.000000 0.000000 0.000000 2.893496 -4.716172 -1.336136 -2.702679 -1.656330 -14.665854 -169.162098 -82.505154 -162.290038 0.000000 0.000000 0.000000 -0.074326 -9.066977 4.497162 0.460931 -4.771127 19.898592 -8.918437 -75.034484 -13.413792 0.000000 0.000000 0.000000 3.286141 -24.740191 -7.491424 4.601034 30.157903 4.269765 12.803946 0.138174 5.015393 0.000000 0.000000 0.000000 -15.505401 -3.330241 10.904089 -12.013442 51.415512 -18.115535 -24.730969 4.604502 -9.733848 0.000000 0.000000 0.000000 
-2211.154297 775.086243 1078.770996 16.628672 -7.516269 3.072555 -2.601828 6.106193 8.310221 -2.027901 -0.972792 -1.714892 -1.931972 1.142028 1.430382 -1.326328 -0.298476 3.263973 0.000000 0.000000 0.000000 2.898938 -4.859627 -1.168633 -2.146270 -1.749065 -14.532216 -168.738581 -83.357043 -163.503746 0.000000 0.000000 0.000000 -0.041067 -9.208680 4.125759 0.452573 -4.951354 19.537394 -9.070489 -74.413366 -13.441541 0.000000 0.000000 0.000000 3.339287 -24.492717 -7.493458 4.463194 30.867083 4.362421 12.912215 -0.392260 5.000730 0.000000 0.000000 0.000000 -14.760257 -4.498542 10.917362 -11.186563 52.432140 -17.227602 -22.043525 3.532204 -8.608696 0.000000 0.000000 0.000000 
-2206.135010 773.196289 1079.176025 16.254688 -7.640082 3.170680 -2.421098 6.219252 8.378215 -1.901120 -0.952820 -1.686052 -1.815870 1.133913 1.423070 -1.295245 -0.087349 3.186542 0.000000 0.000000 0.000000 2.532816 -5.158385 -1.010726 -1.687877 -1.965088 -14.353198 -168.336444 -84.727877 -164.273484 0.000000 0.000000 0.000000 -0.192404 -9.531025 3.877330 0.385154 -5.364613 18.945239 -9.322043 -72.841094 -13.149258 0.000000 0.000000 0.000000 3.359250 -24.322760 -7.386670 4.438961 31.221056 4.584116 13.027098 -0.553585 5.028024 0.000000 0.000000 0.000000 -13.916551 -5.613412 11.034006 -10.272814 52.384440 -16.326962 -19.070454 3.221403 -7.516963 0.000000 0.000000 0.000000 
-2202.082520 771.717896 1080.333984 15.722674 -7.645125 3.231141 -2.159734 6.171768 8.483535 -1.729163 -0.888142 -1.613213 -1.661304 1.082481 1.380616 -1.210254 0.107183 2.981737 0.000000 0.000000 0.000000 1.998777 -5.541409 -0.893739 -1.265588 -2.249193 -14.096718 -167.936114 -86.431956 -164.811026 0.000000 0.000000 0.000000 -0.438715 -9.914962 3.670264 0.296649 -5.865784 18.228262 -9.587020 -70.755135 -12.658087 0.000000 0.000000 0.000000 3.429502 -24.152326 -7.241481 4.545911 31.171629 4.846014 13.111030 -0.522785 5.067277 0.000000 0.000000 0.000000 -12.864080 -6.651624 11.117995 -9.162848 51.439906 -15.298022 -15.757188 3.127888 -6.348375 0.000000 0.000000 0.000000 
-2198.517822 770.584778 1081.987061 15.094152 -7.594162 3.310817 -1.933860 6.151053 8.543120 -1.598340 -0.845951 -1.564900 -1.543685 1.047998 1.346122 -1.138636 0.248912 2.808243 0.000000 0.000000 0.000000 1.658083 -5.942294 -0.831797 -0.974614 -2.555252 -13.799280 -167.617836 -88.065547 -165.013645 0.000000 0.000000 0.000000 -0.635437 -10.255414 3.563721 0.244417 -6.269150 17.487566 -9.754754 -68.802336 -12.106978 0.000000 0.000000 0.000000 3.570327 -23.931925 -7.073195 4.716425 30.861701 4.991624 13.110820 -0.458107 5.080986 0.000000 0.000000 0.000000 -11.920686 -7.507966 11.079157 -8.190422 50.081630 -14.417442 -13.275066 2.612050 -5.421596 0.000000 0.000000 0.000000 
-2195.289307 769.767212 1084.156006 14.340611 -7.480640 3.443179 -1.786545 6.215372 8.501266 -1.554323 -0.848755 -1.561743 -1.508860 1.058001 1.338531 -1.105804 0.321733 2.726907 0.000000 0.000000 0.000000 1.709700 -6.356510 -0.839716 -0.886020 -2.877089 -13.474411 -167.425254 -89.491722 -164.697605 0.000000 0.000000 0.000000 -0.707908 -10.490400 3.653095 0.248428 -6.480704 16.663887 -9.781043 -67.206851 -11.488442 0.000000 0.000000 0.000000 3.794493 -23.647402 -6.862658 4.945851 30.273298 4.901760 12.976026 -0.403414 5.046315 0.000000 0.000000 0.000000 -11.295904 -8.115337 10.908015 -7.592191 48.336318 -13.910515 -12.212822 1.206971 -4.902858 0.000000 0.000000 0.000000 
-2192.549561 769.295776 1086.819946 13.500616 -7.309925 3.598145 -1.672895 6.303486 8.395314 -1.555163 -0.875043 -1.574493 -1.518744 1.086502 1.339240 -1.086462 0.339596 2.678340 0.000000 0.000000 0.000000 1.953704 -6.788582 -0.903545 -0.910210 -3.213816 -13.109743 12.695039 -89.150905 15.938756 0.000000 0.000000 0.000000 -0.733574 -10.683034 3.853344 0.283614 -6.612175 15.820762 -9.721889 -65.739952 -10.813703 0.000000 0.000000 0.000000 4.079089 -23.308950 -6.644262 5.234975 29.415377 4.694987 12.768675 -0.306090 4.991770 0.000000 0.000000 0.000000 -10.841202 -8.537913 10.637704 -7.212778 46.199797 -13.587457 -11.844247 -0.485390 -4.612082 0.000000 0.000000 0.000000 
-2190.262451 769.191406 1089.649048 12.746297 -7.152588 3.754852 -1.577498 6.387585 8.250915 -1.560117 -0.902952 -1.577214 -1.531846 1.114697 1.326666 -1.073375 0.304354 2.645166 0.000000 0.000000 0.000000 2.150518 -7.189197 -0.993663 -0.904655 -3.527016 -12.707389 12.808494 -87.861138 16.432156 0.000000 0.000000 0.000000 -0.795505 -10.910722 3.980531 0.338433 -6.779257 15.216536 -9.641465 -64.386825 -10.261721 0.000000 0.000000 0.000000 4.388175 -22.918625 -6.529719 5.528906 28.481090 4.570477 12.598145 -0.198763 4.952878 0.000000 0.000000 0.000000 -10.409701 -8.924042 10.242621 -6.863870 44.280721 -13.177459 -11.447948 -1.699618 -4.359498 0.000000 0.000000 0.000000 
-2188.474854 769.539795 1092.689941 12.169394 -7.033775 3.944438 -1.504506 6.452860 8.015480 -1.561893 -0.922535 -1.541542 -1.540316 1.139495 1.282878 -1.070399 0.190192 2.636130 0.000000 0.000000 0.000000 2.211106 -7.515225 -1.131575 -0.803506 -3.785693 -12.212416 12.935123 -86.656407 16.549009 0.000000 0.000000 0.000000 -0.947958 -11.208401 3.958070 0.416341 -7.018151 14.974770 -9.564797 -63.159132 -9.909370 0.000000 0.000000 0.000000 4.719825 -22.455117 -6.618466 5.818891 27.504492 4.618758 12.504459 -0.095620 4.943166 0.000000 0.000000 0.000000 -9.976974 -9.373341 9.610453 -6.495710 42.927775 -12.550402 -10.885412 -2.301803 -4.100196 0.000000 0.000000 0.000000 
-2187.140869 770.255127 1095.896973 11.687069 -6.925310 4.148103 -1.455588 6.502106 7.721145 -1.570327 -0.938019 -1.483860 -1.554238 1.163955 1.224673 -1.074184 0.023199 2.643967 0.000000 0.000000 0.000000 2.223656 -7.810580 -1.296841 -0.679570 -4.024541 -11.683230 13.051676 -85.523385 16.532015 0.000000 0.000000 0.000000 -1.135847 -11.538285 3.868169 0.514658 -7.278370 14.960388 -9.482006 -62.057186 -9.686349 0.000000 0.000000 0.000000 5.069826 -21.944920 -6.819428 6.113419 26.451499 4.743600 12.437692 0.017847 4.945213 0.000000 0.000000 0.000000 -9.583846 -9.819542 8.840967 -6.159831 41.896937 -11.854112 -10.354995 -2.663940 -3.872745 0.000000 0.000000 0.000000 
